<?xml version="1.0" encoding="UTF-8" standalone="no"?>
<!DOCTYPE svg PUBLIC "-//W3C//DTD SVG 1.1//EN" "http://www.w3.org/Graphics/SVG/1.1/DTD/svg11.dtd">
<svg width="100%" height="100%" viewBox="0 0 995 377" version="1.1" xmlns="http://www.w3.org/2000/svg" xmlns:xlink="http://www.w3.org/1999/xlink" xml:space="preserve" xmlns:serif="http://www.serif.com/" style="fill-rule:evenodd;clip-rule:evenodd;stroke-linejoin:round;stroke-miterlimit:2;">
    <g transform="matrix(1,0,0,1,126.946289,1.821289)">
        <path d="M0,0C7.225,4.147 11.292,12.613 15.116,19.679C16.255,21.738 17.396,23.797 18.538,25.854C19.119,26.905 19.7,27.955 20.298,29.037C23.083,34.021 25.974,38.943 28.866,43.866C33.987,52.604 39.04,61.379 44.054,70.179C49.593,79.9 55.187,89.588 60.837,99.246C66.985,109.759 73.066,120.312 79.145,130.866C81.724,135.343 84.305,139.819 86.888,144.294C88.152,146.486 89.414,148.68 90.675,150.874C93.563,155.898 96.475,160.901 99.476,165.858C100.259,167.167 100.259,167.167 101.059,168.501C102.025,170.111 103.003,171.713 103.994,173.307C104.627,174.367 104.627,174.367 105.272,175.448C105.643,176.053 106.014,176.657 106.396,177.28C107.6,180.756 106.399,183.45 104.877,186.66C104.139,187.963 104.139,187.963 103.386,189.292C102.83,190.28 102.273,191.268 101.7,192.286C101.095,193.344 100.49,194.401 99.866,195.491C99.238,196.6 98.611,197.709 97.964,198.851C92.596,208.301 87.126,217.691 81.628,227.065C78.505,232.395 75.419,237.745 72.342,243.101C69.257,248.467 66.159,253.825 63.054,259.179C62.472,260.182 61.891,261.185 61.292,262.219C59.66,265.024 58.015,267.821 56.366,270.616C55.885,271.445 55.404,272.273 54.909,273.127C54.458,273.885 54.007,274.644 53.542,275.425C53.156,276.082 52.769,276.738 52.371,277.415C50.198,280.324 48.273,281.974 44.644,282.583C41.779,282.615 38.918,282.637 36.054,282.616C35.056,282.636 34.058,282.656 33.03,282.677C25.734,282.672 25.734,282.672 22.429,280.276C20.061,276.664 19.718,274.53 20.054,270.179C21.3,267.308 21.3,267.308 23.062,264.312C23.711,263.191 24.361,262.071 25.03,260.917C25.746,259.712 26.462,258.508 27.179,257.304C27.914,256.045 28.649,254.786 29.382,253.526C31.243,250.335 33.118,247.152 34.997,243.971C37.137,240.341 39.255,236.698 41.376,233.057C42.495,231.136 43.617,229.217 44.739,227.299C51.4,215.91 57.949,204.456 64.449,192.975C65.409,191.302 66.387,189.638 67.4,187.996C69.562,184.479 70.452,182.293 70.054,178.179C69.05,175.783 69.05,175.783 67.554,173.425C67.005,172.502 66.455,171.58 65.89,170.63C64.981,169.138 64.981,169.138 64.054,167.616C62.761,165.449 61.469,163.281 60.179,161.112C59.673,160.267 59.673,160.267 59.157,159.404C55.709,153.631 52.379,147.793 49.058,141.946C43.196,131.629 37.262,121.355 31.27,111.112C27.028,103.857 22.815,96.585 18.616,89.304C18.001,88.24 17.387,87.176 16.753,86.08C13.801,80.966 10.86,75.846 7.955,70.705C6.592,68.294 5.223,65.888 3.853,63.481C2.888,61.779 1.932,60.072 0.976,58.365C0.389,57.335 -0.197,56.306 -0.802,55.245C-1.314,54.337 -1.826,53.429 -2.353,52.493C-4.027,50.061 -5.385,48.641 -7.946,47.179C-11.634,47.407 -11.634,47.407 -14.946,48.179C-15.211,48.886 -15.476,49.594 -15.748,50.323C-17.009,53.327 -18.49,56.054 -20.114,58.878C-21.072,60.548 -21.072,60.548 -22.048,62.252C-22.743,63.457 -23.439,64.662 -24.134,65.866C-24.855,67.122 -25.576,68.377 -26.297,69.633C-28.151,72.86 -30.009,76.085 -31.868,79.309C-32.894,81.088 -33.918,82.868 -34.942,84.648C-41.55,96.14 -48.192,107.611 -54.884,119.054C-60.71,129.017 -66.461,139.023 -72.161,149.06C-75.192,154.392 -78.243,159.707 -81.403,164.964C-81.922,165.833 -82.441,166.702 -82.975,167.597C-83.922,169.178 -84.879,170.753 -85.849,172.321C-86.263,173.014 -86.676,173.707 -87.103,174.421C-87.462,175.007 -87.821,175.594 -88.19,176.198C-89.64,179.997 -89.396,183.13 -87.807,186.834C-87.274,187.726 -86.741,188.619 -86.192,189.538C-85.293,191.068 -85.293,191.068 -84.376,192.628C-83.718,193.718 -83.061,194.807 -82.384,195.929C-81.7,197.084 -81.017,198.24 -80.335,199.397C-78.918,201.8 -77.495,204.2 -76.067,206.598C-72.78,212.132 -69.588,217.721 -66.384,223.304C-62.648,229.793 -58.898,236.272 -55.103,242.726C-54.478,243.789 -53.854,244.852 -53.21,245.948C-52.04,247.938 -50.866,249.927 -49.688,251.914C-48.078,254.653 -46.501,257.407 -44.946,260.179C-44.071,261.738 -44.071,261.738 -43.177,263.328C-42.338,264.898 -42.338,264.898 -41.481,266.499C-40.971,267.443 -40.461,268.387 -39.935,269.359C-38.74,272.768 -38.987,274.726 -39.946,278.179C-42.142,280.919 -43.857,282.002 -47.337,282.566C-50.219,282.755 -53.059,282.773 -55.946,282.741C-56.931,282.765 -57.916,282.789 -58.931,282.813C-63.443,282.804 -66.104,282.771 -69.856,280.132C-72.317,276.654 -74.401,273.133 -76.384,269.366C-77.262,267.744 -78.142,266.123 -79.024,264.503C-79.494,263.64 -79.964,262.777 -80.448,261.887C-83.094,257.103 -85.867,252.394 -88.634,247.679C-94.836,237.091 -100.983,226.473 -107.106,215.839C-109.438,211.79 -111.776,207.745 -114.123,203.705C-115.52,201.298 -116.916,198.889 -118.312,196.481C-119.302,194.775 -120.295,193.07 -121.288,191.365C-121.884,190.335 -122.48,189.306 -123.095,188.245C-123.622,187.337 -124.15,186.429 -124.694,185.493C-125.946,183.179 -125.946,183.179 -126.946,180.179C-126.029,178.079 -126.029,178.079 -124.544,175.62C-123.715,174.227 -123.715,174.227 -122.87,172.806C-122.256,171.794 -121.642,170.783 -121.009,169.741C-119.707,167.556 -118.406,165.37 -117.106,163.183C-116.596,162.328 -116.596,162.328 -116.076,161.456C-112.622,155.663 -109.281,149.808 -105.949,143.944C-100.087,133.628 -94.154,123.354 -88.163,113.112C-82.009,102.588 -75.923,92.025 -69.837,81.461C-66.087,74.951 -62.331,68.445 -58.576,61.938C-54.785,55.368 -50.999,48.796 -47.218,42.22C-45.348,38.975 -43.47,35.735 -41.591,32.495C-39.156,28.293 -36.762,24.072 -34.396,19.831C-33.267,17.843 -32.138,15.854 -31.009,13.866C-30.514,12.959 -30.018,12.052 -29.508,11.117C-23.255,0.221 -12.193,-5.316 0,0Z" style="fill:white;fill-rule:nonzero;"/>
    </g>
    <g transform="matrix(1,0,0,1,406,110)">
        <path d="M0,0L30,0C38.148,10.238 38.148,10.238 40.086,15.27C42.924,22.072 46.523,28.252 50.329,34.536C52.172,37.593 53.967,40.678 55.766,43.762C56.478,44.98 57.191,46.198 57.904,47.416C61.732,53.959 65.548,60.509 69.359,67.062C69.884,67.963 70.409,68.864 70.949,69.793C71.396,70.561 71.843,71.33 72.303,72.122C74.843,76.43 77.427,80.712 80,85C80.33,56.95 80.66,28.9 81,0L108,0L108,135C78,135 78,135 71.949,129.676C70.703,127.198 69.681,124.876 68.688,122.312C68.065,120.988 67.428,119.671 66.78,118.359C65.444,115.631 64.169,112.886 62.929,110.114C60.203,104.147 56.796,98.593 53.4,92.99C51.608,90.019 49.862,87.02 48.113,84.023C47.427,82.851 46.74,81.679 46.053,80.507C42.698,74.778 39.348,69.046 36,63.312C35.406,62.296 34.812,61.28 34.2,60.233C33.66,59.307 33.119,58.38 32.562,57.426C32.089,56.615 31.616,55.805 31.129,54.97C30.382,53.667 29.672,52.343 29,51C28.67,78.72 28.34,106.44 28,135L0,135L0,0Z" style="fill:white;fill-rule:nonzero;"/>
    </g>
    <g transform="matrix(1,0,0,1,963.953125,121.226562)">
        <path d="M0,0C10.662,9.176 17.809,20.769 20.047,34.773C20.135,37.694 20.173,40.591 20.16,43.511C20.161,44.38 20.161,45.249 20.161,46.144C20.16,49.006 20.152,51.868 20.145,54.73C20.143,56.719 20.141,58.707 20.14,60.695C20.136,65.921 20.127,71.148 20.116,76.374C20.105,81.709 20.101,87.045 20.096,92.381C20.085,102.845 20.067,113.309 20.047,123.773L-7.953,123.773L-7.953,97.773L-60.953,97.773L-60.953,123.773L-88.953,123.773C-88.998,113.176 -89.035,102.579 -89.057,91.981C-89.067,87.059 -89.081,82.138 -89.104,77.216C-89.126,72.456 -89.138,67.697 -89.143,62.938C-89.147,61.132 -89.154,59.325 -89.165,57.519C-89.286,36.535 -87.07,20.133 -72.516,4.086C-51.914,-14.505 -22.706,-17.119 0,0ZM-55.134,26.374C-61.706,35.044 -61.462,45.038 -61.203,55.461C-61.121,60.184 -61.038,64.907 -60.953,69.773L-7.953,69.773C-7.871,64.679 -7.788,59.585 -7.703,54.336C-7.667,52.747 -7.63,51.159 -7.593,49.522C-7.511,39.018 -8.989,31.227 -16.238,23.277C-21.926,18.29 -28.777,16.385 -36.199,16.504C-43.871,17.255 -50.04,20.626 -55.134,26.374Z" style="fill:white;fill-rule:nonzero;"/>
    </g>
    <g transform="matrix(1,0,0,1,363.953125,121.226562)">
        <path d="M0,0C10.662,9.176 17.809,20.769 20.047,34.773C20.135,37.694 20.173,40.591 20.16,43.511C20.161,44.38 20.161,45.249 20.161,46.144C20.16,49.006 20.152,51.868 20.145,54.73C20.143,56.719 20.141,58.707 20.14,60.695C20.136,65.921 20.127,71.148 20.116,76.374C20.105,81.709 20.101,87.045 20.096,92.381C20.085,102.845 20.067,113.309 20.047,123.773L-7.953,123.773L-7.953,97.773L-60.953,97.773L-60.953,123.773L-88.953,123.773C-88.998,113.176 -89.035,102.579 -89.057,91.981C-89.067,87.059 -89.081,82.138 -89.104,77.216C-89.126,72.456 -89.138,67.697 -89.143,62.938C-89.147,61.132 -89.154,59.325 -89.165,57.519C-89.286,36.535 -87.07,20.133 -72.516,4.086C-51.914,-14.505 -22.706,-17.119 0,0ZM-55.134,26.374C-61.706,35.044 -61.462,45.038 -61.203,55.461C-61.121,60.184 -61.038,64.907 -60.953,69.773L-7.953,69.773C-7.871,64.679 -7.788,59.585 -7.703,54.336C-7.667,52.747 -7.63,51.159 -7.593,49.522C-7.511,39.018 -8.989,31.227 -16.238,23.277C-21.926,18.29 -28.777,16.385 -36.199,16.504C-43.871,17.255 -50.04,20.626 -55.134,26.374Z" style="fill:white;fill-rule:nonzero;"/>
    </g>
    <g transform="matrix(1,0,0,1,758,110)">
        <path d="M0,0L28,0C28.33,21.12 28.66,42.24 29,64C33.62,57.73 38.24,51.46 43,45C45.494,41.662 47.991,38.327 50.5,35C56.172,27.463 61.787,19.887 67.346,12.266C67.884,11.531 68.422,10.796 68.977,10.039C69.441,9.402 69.906,8.765 70.385,8.108C70.918,7.412 71.451,6.717 72,6C72.737,4.939 73.475,3.878 74.235,2.784C77,0 77,0 80.413,-0.681C81.686,-0.65 82.958,-0.618 84.27,-0.586C84.951,-0.577 85.632,-0.569 86.333,-0.56C88.495,-0.527 90.652,-0.452 92.812,-0.375C94.283,-0.345 95.754,-0.318 97.225,-0.293C100.818,-0.227 104.408,-0.124 108,0C106.7,3.616 105.155,6.387 102.797,9.414C102.153,10.248 101.509,11.082 100.846,11.942C100.154,12.827 99.463,13.713 98.75,14.625C97.294,16.511 95.84,18.397 94.387,20.285C93.652,21.238 92.918,22.191 92.162,23.172C88.907,27.429 85.73,31.741 82.562,36.062C81.426,37.612 80.289,39.162 79.152,40.711C78.621,41.435 78.09,42.159 77.542,42.905C74.063,47.63 70.531,52.314 67,57C67.488,57.915 67.977,58.829 68.48,59.771C71.624,65.662 74.766,71.553 77.89,77.454C85.035,90.95 92.235,104.397 99.839,117.643C108,131.887 108,131.887 108,135L76,135C74.9,132.922 73.801,130.844 72.668,128.703C64.564,113.402 56.42,98.13 48,83C45.848,85.547 43.737,88.114 41.664,90.727C39.939,92.896 38.141,94.911 36.211,96.898C26.128,108.03 27.857,120.522 28,135L0,135L0,0Z" style="fill:white;fill-rule:nonzero;"/>
    </g>
    <g transform="matrix(1,0,0,1,578,110)">
        <path d="M0,0L31,0C32.822,4.859 34.535,9.53 36.021,14.469C36.388,15.685 36.756,16.9 37.134,18.153C37.526,19.458 37.917,20.764 38.309,22.07C38.721,23.438 39.133,24.805 39.545,26.173C40.406,29.032 41.266,31.891 42.124,34.751C43.212,38.375 44.303,41.999 45.395,45.622C46.246,48.446 47.096,51.271 47.946,54.096C48.347,55.43 48.748,56.763 49.15,58.097C51.843,67.044 54.456,76.01 57,85C59.271,81.594 60.275,78.227 61.414,74.347C61.647,73.57 61.88,72.792 62.12,71.991C62.888,69.421 63.649,66.849 64.41,64.277C64.942,62.493 65.475,60.708 66.009,58.924C67.412,54.226 68.809,49.526 70.205,44.826C72.441,37.298 74.685,29.773 76.931,22.247C77.715,19.615 78.497,16.981 79.279,14.347C79.758,12.739 80.236,11.131 80.715,9.523C80.933,8.787 81.15,8.051 81.375,7.292C82.887,2.227 82.887,2.227 84,0L116,0C114.178,6.68 112.356,13.215 110.137,19.75C109.868,20.549 109.6,21.349 109.324,22.172C108.748,23.888 108.17,25.604 107.591,27.319C106.018,31.985 104.456,36.655 102.895,41.324C102.41,42.772 102.41,42.772 101.916,44.248C98.517,54.42 95.189,64.613 91.875,74.812C91.445,76.135 91.445,76.135 91.006,77.485C88.116,86.377 85.234,95.273 82.358,104.17C81.235,107.644 80.111,111.117 78.987,114.591C78.204,117.012 77.423,119.434 76.642,121.857C76.172,123.312 75.701,124.767 75.23,126.223C75.018,126.885 74.805,127.547 74.586,128.23C73.83,130.561 73.098,132.804 72,135L43,135C38.957,122.73 34.915,110.459 30.875,98.188C30.578,97.285 30.28,96.382 29.974,95.452C22.254,72.005 14.543,48.555 6.923,25.075C6.672,24.3 6.42,23.525 6.161,22.727C5.697,21.295 5.233,19.862 4.77,18.429C3.606,14.83 2.396,11.251 1.152,7.68C0,4 0,4 0,0Z" style="fill:white;fill-rule:nonzero;"/>
    </g>
    <g transform="matrix(1,0,0,1,122,106)">
        <path d="M0,0C4.868,3.1 6.968,6.971 9.562,11.938C10.426,13.541 11.29,15.144 12.156,16.746C12.839,18.016 12.839,18.016 13.535,19.312C16.136,24.084 18.854,28.789 21.562,33.5C22.585,35.281 23.607,37.062 24.629,38.844C25.063,39.598 25.497,40.353 25.944,41.131C28.452,45.569 28.216,49.106 27,54C25.141,58.068 22.848,61.823 20.5,65.625C19.552,67.2 19.552,67.2 18.585,68.807C17.32,70.906 16.049,73.001 14.771,75.092C13.215,77.646 11.687,80.213 10.176,82.793C9.388,84.133 8.6,85.473 7.812,86.812C7.288,87.708 7.288,87.708 6.754,88.622C2.636,95.516 2.636,95.516 -1.086,96.617C-1.841,96.702 -2.597,96.787 -3.375,96.875C-4.125,96.976 -4.875,97.076 -5.648,97.18C-8.845,96.935 -10.397,95.872 -13,94C-14.909,91.311 -14.909,91.311 -16.707,88.074C-17.036,87.49 -17.365,86.906 -17.704,86.304C-18.752,84.438 -19.783,82.563 -20.812,80.688C-21.492,79.47 -22.172,78.253 -22.854,77.037C-23.877,75.21 -24.897,73.382 -25.905,71.547C-27.636,68.4 -29.411,65.299 -31.294,62.241C-31.666,61.627 -32.037,61.013 -32.42,60.38C-33.447,58.688 -34.492,57.007 -35.538,55.327C-37.697,50.414 -37.9,46.392 -35.965,41.25C-35.484,40.437 -35.003,39.623 -34.508,38.785C-33.704,37.396 -33.704,37.396 -32.885,35.98C-32.304,35.017 -31.723,34.054 -31.125,33.062C-30.537,32.059 -29.95,31.056 -29.344,30.022C-28.147,27.983 -26.943,25.947 -25.732,23.916C-24.145,21.245 -22.591,18.558 -21.051,15.859C-20.18,14.343 -19.309,12.828 -18.438,11.312C-18.045,10.625 -17.653,9.937 -17.249,9.229C-12.66,1.382 -9.339,-2.093 0,0Z" style="fill:white;fill-rule:nonzero;"/>
    </g>
    <g transform="matrix(1,0,0,1,706,110)">
        <rect x="0" y="0" width="28" height="135" style="fill:white;fill-rule:nonzero;"/>
    </g>
    <g transform="matrix(1,0,0,1,539,110)">
        <rect x="0" y="0" width="28" height="135" style="fill:white;fill-rule:nonzero;"/>
    </g>
    <g transform="matrix(1,0,0,1,104.142822,294.886475)">
        <path d="M0,0C1.391,0 2.782,0.006 4.174,0.016C4.905,0.017 5.636,0.019 6.389,0.02C8.733,0.026 11.076,0.038 13.42,0.051C15.005,0.056 16.59,0.061 18.176,0.065C22.069,0.076 25.963,0.093 29.857,0.114C31.158,2.298 32.448,4.489 33.732,6.684C34.097,7.294 34.462,7.904 34.838,8.533C40.843,18.858 42.355,30.561 39.791,42.18C37.665,48.861 34.206,54.982 30.857,61.114C30.4,61.954 29.943,62.794 29.472,63.66C28.035,66.28 26.576,68.886 25.107,71.489C24.418,72.729 24.418,72.729 23.715,73.994C23.272,74.763 22.829,75.532 22.373,76.324C21.984,77.008 21.595,77.692 21.194,78.396C18.911,81.329 16.52,82.015 12.92,82.551C8.763,81.957 7.629,80.207 4.857,77.114C2.101,73.088 -0.273,68.841 -2.705,64.614C-3.365,63.505 -4.024,62.396 -4.703,61.254C-12.385,47.976 -16.628,34.914 -13.08,19.614C-11.236,13.574 -7.08,0.256 0,0Z" style="fill:white;fill-rule:nonzero;"/>
    </g>
    <g transform="matrix(1,0,0,1,126.946289,1.821289)">
        <path d="M0,0C7.225,4.147 11.292,12.613 15.116,19.679C16.255,21.738 17.396,23.797 18.538,25.854C19.119,26.905 19.7,27.955 20.298,29.037C23.083,34.021 25.974,38.943 28.866,43.866C33.987,52.604 39.04,61.379 44.054,70.179C49.593,79.9 55.187,89.588 60.837,99.246C66.985,109.759 73.066,120.312 79.145,130.866C81.724,135.343 84.305,139.819 86.888,144.294C88.152,146.486 89.414,148.68 90.675,150.874C93.563,155.898 96.475,160.901 99.476,165.858C100.259,167.167 100.259,167.167 101.059,168.501C102.025,170.111 103.003,171.713 103.994,173.307C104.627,174.367 104.627,174.367 105.272,175.448C105.643,176.053 106.014,176.657 106.396,177.28C107.6,180.756 106.399,183.45 104.877,186.66C104.139,187.963 104.139,187.963 103.386,189.292C102.83,190.28 102.273,191.268 101.7,192.286C101.095,193.344 100.49,194.401 99.866,195.491C99.238,196.6 98.611,197.709 97.964,198.851C92.596,208.301 87.126,217.691 81.628,227.065C78.505,232.395 75.419,237.745 72.342,243.101C69.257,248.467 66.159,253.825 63.054,259.179C62.472,260.182 61.891,261.185 61.292,262.219C59.66,265.024 58.015,267.821 56.366,270.616C55.885,271.445 55.404,272.273 54.909,273.127C54.458,273.885 54.007,274.644 53.542,275.425C53.156,276.082 52.769,276.738 52.371,277.415C50.198,280.324 48.273,281.974 44.644,282.583C41.779,282.615 38.918,282.637 36.054,282.616C35.056,282.636 34.058,282.656 33.03,282.677C25.734,282.672 25.734,282.672 22.429,280.276C20.061,276.664 19.718,274.53 20.054,270.179C21.3,267.308 21.3,267.308 23.062,264.312C23.711,263.191 24.361,262.071 25.03,260.917C25.746,259.712 26.462,258.508 27.179,257.304C27.914,256.045 28.649,254.786 29.382,253.526C31.243,250.335 33.118,247.152 34.997,243.971C37.137,240.341 39.255,236.698 41.376,233.057C42.495,231.136 43.617,229.217 44.739,227.299C51.4,215.91 57.949,204.456 64.449,192.975C65.409,191.302 66.387,189.638 67.4,187.996C69.562,184.479 70.452,182.293 70.054,178.179C69.05,175.783 69.05,175.783 67.554,173.425C67.005,172.502 66.455,171.58 65.89,170.63C64.981,169.138 64.981,169.138 64.054,167.616C62.761,165.449 61.469,163.281 60.179,161.112C59.673,160.267 59.673,160.267 59.157,159.404C55.709,153.631 52.379,147.793 49.058,141.946C43.196,131.629 37.262,121.355 31.27,111.112C27.028,103.857 22.815,96.585 18.616,89.304C18.001,88.24 17.387,87.176 16.753,86.08C13.801,80.966 10.86,75.846 7.955,70.705C6.592,68.294 5.223,65.888 3.853,63.481C2.888,61.779 1.932,60.072 0.976,58.365C0.389,57.335 -0.197,56.306 -0.802,55.245C-1.314,54.337 -1.826,53.429 -2.353,52.493C-4.027,50.061 -5.385,48.641 -7.946,47.179C-11.634,47.407 -11.634,47.407 -14.946,48.179C-15.211,48.886 -15.476,49.594 -15.748,50.323C-17.009,53.327 -18.49,56.054 -20.114,58.878C-21.072,60.548 -21.072,60.548 -22.048,62.252C-22.743,63.457 -23.439,64.662 -24.134,65.866C-24.855,67.122 -25.576,68.377 -26.297,69.633C-28.151,72.86 -30.009,76.085 -31.868,79.309C-32.894,81.088 -33.918,82.868 -34.942,84.648C-41.55,96.14 -48.192,107.611 -54.884,119.054C-60.71,129.017 -66.461,139.023 -72.161,149.06C-75.192,154.392 -78.243,159.707 -81.403,164.964C-81.922,165.833 -82.441,166.702 -82.975,167.597C-83.922,169.178 -84.879,170.753 -85.849,172.321C-86.263,173.014 -86.676,173.707 -87.103,174.421C-87.462,175.007 -87.821,175.594 -88.19,176.198C-89.64,179.997 -89.396,183.13 -87.807,186.834C-87.274,187.726 -86.741,188.619 -86.192,189.538C-85.293,191.068 -85.293,191.068 -84.376,192.628C-83.718,193.718 -83.061,194.807 -82.384,195.929C-81.7,197.084 -81.017,198.24 -80.335,199.397C-78.918,201.8 -77.495,204.2 -76.067,206.598C-72.78,212.132 -69.588,217.721 -66.384,223.304C-62.648,229.793 -58.898,236.272 -55.103,242.726C-54.478,243.789 -53.854,244.852 -53.21,245.948C-52.04,247.938 -50.866,249.927 -49.688,251.914C-48.078,254.653 -46.501,257.407 -44.946,260.179C-44.071,261.738 -44.071,261.738 -43.177,263.328C-42.338,264.898 -42.338,264.898 -41.481,266.499C-40.971,267.443 -40.461,268.387 -39.935,269.359C-38.74,272.768 -38.987,274.726 -39.946,278.179C-42.142,280.919 -43.857,282.002 -47.337,282.566C-50.219,282.755 -53.059,282.773 -55.946,282.741C-56.931,282.765 -57.916,282.789 -58.931,282.813C-63.443,282.804 -66.104,282.771 -69.856,280.132C-72.317,276.654 -74.401,273.133 -76.384,269.366C-77.262,267.744 -78.142,266.123 -79.024,264.503C-79.494,263.64 -79.964,262.777 -80.448,261.887C-83.094,257.103 -85.867,252.394 -88.634,247.679C-94.836,237.091 -100.983,226.473 -107.106,215.839C-109.438,211.79 -111.776,207.745 -114.123,203.705C-115.52,201.298 -116.916,198.889 -118.312,196.481C-119.302,194.775 -120.295,193.07 -121.288,191.365C-121.884,190.335 -122.48,189.306 -123.095,188.245C-123.622,187.337 -124.15,186.429 -124.694,185.493C-125.946,183.179 -125.946,183.179 -126.946,180.179C-126.029,178.079 -126.029,178.079 -124.544,175.62C-123.715,174.227 -123.715,174.227 -122.87,172.806C-122.256,171.794 -121.642,170.783 -121.009,169.741C-119.707,167.556 -118.406,165.37 -117.106,163.183C-116.596,162.328 -116.596,162.328 -116.076,161.456C-112.622,155.663 -109.281,149.808 -105.949,143.944C-100.087,133.628 -94.154,123.354 -88.163,113.112C-82.009,102.588 -75.923,92.025 -69.837,81.461C-66.087,74.951 -62.331,68.445 -58.576,61.938C-54.785,55.368 -50.999,48.796 -47.218,42.22C-45.348,38.975 -43.47,35.735 -41.591,32.495C-39.156,28.293 -36.762,24.072 -34.396,19.831C-33.267,17.843 -32.138,15.854 -31.009,13.866C-30.514,12.959 -30.018,12.052 -29.508,11.117C-23.255,0.221 -12.193,-5.316 0,0ZM-23.26,5.72C-27.516,11.263 -30.964,17.171 -34.378,23.261C-35.412,25.103 -36.451,26.942 -37.493,28.779C-38.576,30.692 -39.66,32.604 -40.741,34.517C-44.315,40.842 -47.937,47.138 -51.571,53.429C-52.189,54.499 -52.806,55.569 -53.442,56.671C-57.567,63.812 -61.721,70.935 -65.884,78.054C-70.935,86.692 -75.927,95.362 -80.884,104.054C-92.062,123.653 -103.345,143.19 -114.728,162.671C-115.501,164.01 -115.501,164.01 -116.29,165.377C-117.483,167.394 -118.717,169.387 -119.978,171.363C-120.638,172.419 -121.298,173.474 -121.978,174.562C-122.592,175.517 -123.206,176.472 -123.839,177.457C-125.228,180.105 -125.228,180.105 -124.316,182.701C-123.864,183.519 -123.412,184.336 -122.946,185.179C-122.27,186.437 -122.27,186.437 -121.58,187.72C-120.797,189.067 -120.797,189.067 -119.997,190.44C-119.404,191.463 -118.811,192.486 -118.2,193.54C-117.56,194.638 -116.919,195.735 -116.259,196.866C-115.584,198.028 -114.909,199.19 -114.235,200.353C-112.835,202.766 -111.434,205.178 -110.031,207.59C-106.821,213.111 -103.635,218.646 -100.446,224.179C-99.204,226.331 -97.962,228.483 -96.72,230.636C-94.138,235.11 -91.56,239.587 -88.985,244.065C-85.861,249.498 -82.728,254.926 -79.585,260.349C-78.549,262.138 -77.515,263.928 -76.483,265.72C-75.25,267.857 -74.007,269.988 -72.759,272.116C-72.105,273.239 -71.452,274.362 -70.778,275.519C-68.408,278.989 -68.408,278.989 -64.946,281.179C-61.792,281.655 -58.694,281.688 -55.509,281.679C-54.663,281.707 -53.816,281.735 -52.944,281.765C-48.59,281.778 -46.506,281.568 -42.849,279.022C-40.578,275.628 -40.593,274.189 -40.946,270.179C-41.931,267.682 -41.931,267.682 -43.446,265.327C-43.995,264.408 -44.545,263.489 -45.11,262.542C-46.019,261.063 -46.019,261.063 -46.946,259.554C-48.239,257.396 -49.531,255.237 -50.821,253.077C-51.499,251.949 -52.177,250.821 -52.876,249.658C-55.98,244.466 -58.959,239.203 -61.945,233.943C-67.968,223.333 -74.068,212.77 -80.255,202.255C-81.308,200.46 -82.354,198.661 -83.393,196.858C-84.475,194.991 -85.583,193.14 -86.711,191.3C-90.852,184.299 -90.852,184.299 -91.235,179.729C-89.237,174.225 -86.329,169.376 -83.321,164.366C-82.642,163.215 -81.963,162.064 -81.286,160.912C-79.879,158.519 -78.467,156.131 -77.051,153.744C-73.776,148.211 -70.586,142.629 -67.384,137.054C-62.62,128.787 -57.826,120.539 -53.009,112.304C-48.279,104.216 -43.602,96.1 -38.962,87.961C-36.294,83.28 -33.62,78.604 -30.945,73.927C-29.937,72.163 -28.931,70.399 -27.924,68.635C-26.003,65.269 -24.069,61.911 -22.134,58.554C-21.263,57.024 -21.263,57.024 -20.374,55.464C-19.835,54.532 -19.295,53.6 -18.739,52.64C-18.27,51.823 -17.801,51.006 -17.318,50.165C-15.946,48.179 -15.946,48.179 -12.946,46.179C-9.509,45.804 -9.509,45.804 -5.946,46.179C-2.972,48.698 -1.072,51.361 0.796,54.757C1.548,56.108 1.548,56.108 2.315,57.486C2.847,58.457 3.38,59.428 3.929,60.429C5.095,62.525 6.263,64.62 7.433,66.714C8.332,68.327 8.332,68.327 9.25,69.972C12.063,74.972 14.962,79.919 17.866,84.866C22.987,93.604 28.04,102.379 33.054,111.179C38.583,120.882 44.167,130.553 49.806,140.193C54.352,147.965 58.866,155.755 63.366,163.554C64.019,164.684 64.672,165.815 65.345,166.98C65.946,168.023 66.548,169.065 67.167,170.14C67.701,171.066 68.235,171.992 68.785,172.946C71.154,177.117 71.909,180.407 71.054,185.179C69.227,189.355 66.871,193.172 64.491,197.054C63.806,198.201 63.122,199.35 62.44,200.499C61.024,202.883 59.6,205.263 58.17,207.639C54.888,213.108 51.728,218.647 48.554,224.179C47.319,226.321 46.083,228.463 44.847,230.604C44.23,231.674 43.613,232.743 42.977,233.845C41.305,236.744 39.632,239.642 37.959,242.54C36.927,244.329 35.895,246.118 34.862,247.907C33.567,250.152 32.271,252.397 30.976,254.642C29.831,256.626 28.687,258.611 27.546,260.597C26.629,262.183 25.702,263.765 24.76,265.337C22.258,269.54 21.308,272.238 22.054,277.179C23.399,279.545 23.399,279.545 26.054,281.179C29.374,281.801 32.621,281.782 35.991,281.741C36.885,281.765 37.779,281.789 38.7,281.813C42.845,281.804 45.311,281.686 48.784,279.312C51.996,274.878 54.731,270.252 57.429,265.491C58.036,264.435 58.643,263.378 59.269,262.29C60.554,260.052 61.837,257.812 63.116,255.571C65.606,251.212 68.119,246.867 70.632,242.521C74.433,235.943 78.223,229.359 82.014,222.775C83.322,220.504 84.63,218.233 85.939,215.962C87.21,213.756 88.478,211.549 89.745,209.34C92.519,204.513 95.318,199.711 98.253,194.979C98.731,194.201 99.209,193.422 99.701,192.62C100.569,191.213 101.451,189.815 102.35,188.427C104.122,185.542 105.096,183.725 104.83,180.302C104.019,177.041 102.909,174.705 101.202,171.819C100.606,170.8 100.01,169.78 99.396,168.729C98.422,167.096 98.422,167.096 97.429,165.429C96.749,164.272 96.07,163.114 95.392,161.956C93.983,159.552 92.57,157.151 91.154,154.751C87.914,149.25 84.737,143.713 81.554,138.179C80.304,136.012 79.054,133.845 77.804,131.679C40.304,66.679 40.304,66.679 38.427,63.426C37.182,61.268 35.937,59.11 34.692,56.953C31.488,51.402 28.288,45.848 25.093,40.292C21.967,34.857 18.832,29.429 15.688,24.004C14.658,22.223 13.63,20.44 12.606,18.654C11.39,16.532 10.161,14.417 8.929,12.304C8.287,11.193 7.645,10.081 6.983,8.937C3.849,4.457 0.281,1.779 -4.946,0.179C-12.457,-0.761 -18.103,-0.332 -23.26,5.72Z" style="fill:white;fill-rule:nonzero;"/>
    </g>
    <g transform="matrix(1,0,0,1,122,106)">
        <path d="M0,0C4.868,3.1 6.968,6.971 9.562,11.938C10.426,13.541 11.29,15.144 12.156,16.746C12.839,18.016 12.839,18.016 13.535,19.312C16.136,24.084 18.854,28.789 21.562,33.5C22.585,35.281 23.607,37.062 24.629,38.844C25.063,39.598 25.497,40.353 25.944,41.131C28.452,45.569 28.216,49.106 27,54C25.141,58.068 22.848,61.823 20.5,65.625C19.552,67.2 19.552,67.2 18.585,68.807C17.32,70.906 16.049,73.001 14.771,75.092C13.215,77.646 11.687,80.213 10.176,82.793C9.388,84.133 8.6,85.473 7.812,86.812C7.288,87.708 7.288,87.708 6.754,88.622C2.636,95.516 2.636,95.516 -1.086,96.617C-1.841,96.702 -2.597,96.787 -3.375,96.875C-4.125,96.976 -4.875,97.076 -5.648,97.18C-8.845,96.935 -10.397,95.872 -13,94C-14.909,91.311 -14.909,91.311 -16.707,88.074C-17.036,87.49 -17.365,86.906 -17.704,86.304C-18.752,84.438 -19.783,82.563 -20.812,80.688C-21.492,79.47 -22.172,78.253 -22.854,77.037C-23.877,75.21 -24.897,73.382 -25.905,71.547C-27.636,68.4 -29.411,65.299 -31.294,62.241C-31.666,61.627 -32.037,61.013 -32.42,60.38C-33.447,58.688 -34.492,57.007 -35.538,55.327C-37.697,50.414 -37.9,46.392 -35.965,41.25C-35.484,40.437 -35.003,39.623 -34.508,38.785C-33.704,37.396 -33.704,37.396 -32.885,35.98C-32.304,35.017 -31.723,34.054 -31.125,33.062C-30.537,32.059 -29.95,31.056 -29.344,30.022C-28.147,27.983 -26.943,25.947 -25.732,23.916C-24.145,21.245 -22.591,18.558 -21.051,15.859C-20.18,14.343 -19.309,12.828 -18.438,11.312C-18.045,10.625 -17.653,9.937 -17.249,9.229C-12.66,1.382 -9.339,-2.093 0,0ZM-13,6C-14.313,7.936 -15.559,9.92 -16.742,11.938C-17.074,12.499 -17.405,13.06 -17.747,13.639C-18.444,14.823 -19.138,16.01 -19.829,17.199C-20.859,18.972 -21.899,20.738 -22.941,22.504C-24.65,25.406 -26.327,28.324 -27.994,31.25C-29.012,33.021 -30.056,34.774 -31.103,36.527C-31.752,37.653 -32.401,38.778 -33.07,39.938C-33.658,40.937 -34.246,41.936 -34.852,42.965C-36.308,46.815 -35.988,49.03 -35,53C-33.791,55.795 -33.791,55.795 -32.156,58.406C-31.573,59.391 -30.991,60.375 -30.39,61.39C-29.766,62.416 -29.143,63.443 -28.5,64.5C-27.551,66.089 -27.551,66.089 -26.583,67.71C-25.315,69.829 -24.043,71.946 -22.767,74.06C-21.224,76.627 -19.709,79.207 -18.211,81.801C-17.432,83.138 -16.654,84.475 -15.875,85.812C-15.212,86.953 -14.55,88.094 -13.867,89.27C-12.073,91.893 -10.731,93.416 -8,95C-4.543,95.667 -4.543,95.667 -1,95C2.682,91.804 5.135,88.471 7.523,84.246C8.152,83.143 8.782,82.041 9.43,80.904C10.393,79.188 10.393,79.188 11.375,77.438C12.653,75.186 13.932,72.935 15.211,70.684C16.144,69.017 16.144,69.017 17.097,67.316C18.365,65.106 19.679,62.922 21.036,60.766C25.576,53.97 25.576,53.97 26.675,46.141C25,40.83 21.947,36.161 19.062,31.438C18.371,30.279 17.68,29.119 16.991,27.959C15.632,25.675 14.262,23.399 12.885,21.125C11.267,18.442 9.676,15.746 8.105,13.035C4.46,6.226 4.46,6.226 -1,1C-7.154,0.202 -8.995,1.458 -13,6Z" style="fill:white;fill-rule:nonzero;"/>
    </g>
</svg>
